HIERARCHY
ROOT Hips
{
	OFFSET -0.001795 -0.223333 0.028219
	CHANNELS 6 Xposition Yposition Zposition Zrotation Yrotation Xrotation 
	JOINT LeftUpLeg
	{
		OFFSET 0.069520 -0.091406 -0.006815
		CHANNELS 3 Zrotation Yrotation Xrotation
		JOINT LeftLeg
		{
			OFFSET 0.034277 -0.375199 -0.004496
			CHANNELS 3 Zrotation Yrotation Xrotation
			JOINT LeftFoot
			{
				OFFSET -0.013596 -0.397961 -0.043693
				CHANNELS 3 Zrotation Yrotation Xrotation
				JOINT LeftToe
				{
					OFFSET 0.026358 -0.055791 0.119288
					CHANNELS 3 Zrotation Yrotation Xrotation
					End Site
					{
						OFFSET 0.000000 0.000000 0.000000
					}
				}
			}
		}
	}
	JOINT RightUpLeg
	{
		OFFSET -0.067670 -0.090522 -0.004320
		CHANNELS 3 Zrotation Yrotation Xrotation
		JOINT RightLeg
		{
			OFFSET -0.038290 -0.382569 -0.008850
			CHANNELS 3 Zrotation Yrotation Xrotation
			JOINT RightFoot
			{
				OFFSET 0.015774 -0.398415 -0.042312
				CHANNELS 3 Zrotation Yrotation Xrotation
				JOINT RightToe
				{
					OFFSET -0.025372 -0.048144 0.123348
					CHANNELS 3 Zrotation Yrotation Xrotation
					End Site
					{
						OFFSET 0.000000 0.000000 0.000000
					}
				}
			}
		}
	}
	JOINT Spine
	{
		OFFSET -0.002533 0.108963 -0.026696
		CHANNELS 3 Zrotation Yrotation Xrotation
		JOINT Spine1
		{
			OFFSET 0.005487 0.135180 0.001092
			CHANNELS 3 Zrotation Yrotation Xrotation
			JOINT Spine2
			{
				OFFSET 0.001457 0.052922 0.025425
				CHANNELS 3 Zrotation Yrotation Xrotation
				JOINT Neck
				{
					OFFSET -0.002778 0.213870 -0.042857
					CHANNELS 3 Zrotation Yrotation Xrotation
					JOINT Head
					{
						OFFSET 0.005152 0.064970 0.051349
						CHANNELS 3 Zrotation Yrotation Xrotation
						End Site
						{
							OFFSET 0.000000 0.000000 0.000000
						}
					}
				}
				JOINT LeftShoulder
				{
					OFFSET 0.078845 0.121749 -0.034090
					CHANNELS 3 Zrotation Yrotation Xrotation
					JOINT LeftArm
					{
						OFFSET 0.090977 0.030469 -0.008868
						CHANNELS 3 Zrotation Yrotation Xrotation
						JOINT LeftForeArm
						{
							OFFSET 0.259612 -0.012772 -0.027456
							CHANNELS 3 Zrotation Yrotation Xrotation
							JOINT LeftHand
							{
								OFFSET 0.249234 0.008986 -0.001171
								CHANNELS 3 Zrotation Yrotation Xrotation
								End Site
								{
									OFFSET 0.000000 0.000000 0.000000
								}
							}
						}
					}
				}
				JOINT RightShoulder
				{
					OFFSET -0.081759 0.118833 -0.038615
					CHANNELS 3 Zrotation Yrotation Xrotation
					JOINT RightArm
					{
						OFFSET -0.096012 0.032551 -0.009143
						CHANNELS 3 Zrotation Yrotation Xrotation
						JOINT RightForeArm
						{
							OFFSET -0.253742 -0.013329 -0.021401
							CHANNELS 3 Zrotation Yrotation Xrotation
							JOINT RightHand
							{
								OFFSET -0.255298 0.007772 -0.005559
								CHANNELS 3 Zrotation Yrotation Xrotation
								End Site
								{
									OFFSET 0.000000 0.000000 0.000000
								}
							}
						}
					}
				}
			}
		}
	}
}
MOTION
Frames: 10
Frame Time: 0.050000
0.000000 0.955076 0.000000 -0.891099 -5.092271 5.880932 2.913675 -0.360602 -4.729187 1.644382 0.072025 -5.354792 -4.845569 -3.263957 14.179608 0.000000 0.000000 0.000000 0.168906 0.556158 -5.630356 -3.634899 0.037200 -4.401859 -2.839606 -11.671928 14.772622 0.000000 0.000000 0.000000 4.975826 0.161279 -3.270995 -3.490947 1.535902 -4.745526 -3.479923 5.600018 4.000419 5.623425 -3.327087 -6.820483 0.000000 0.000000 0.000000 -13.180947 -6.176789 1.049084 -57.193773 -7.387196 -3.261373 -10.983222 -14.138187 1.785319 0.000000 0.000000 0.000000 13.294887 -2.246726 -1.738664 64.187911 1.539325 -5.153120 9.476406 17.501442 1.940963 0.000000 0.000000 0.000000 
-0.000319 0.954095 0.000977 -1.032027 -5.786200 6.397330 3.165643 -0.323879 -4.240900 1.435929 0.163363 -6.866089 -4.539599 -2.816035 14.324921 0.000000 0.000000 0.000000 0.009074 0.644879 -6.507519 -3.129463 0.037911 -3.861271 -2.607652 -11.253850 14.269642 0.000000 0.000000 0.000000 5.573160 0.166231 -3.350364 -3.838489 1.679416 -4.492080 -4.046981 6.876661 3.173156 5.646463 -3.395461 -6.113812 0.000000 0.000000 0.000000 -13.775197 -6.629821 0.990104 -56.087682 -7.490619 -3.035244 -12.743466 -15.132826 2.106812 0.000000 0.000000 0.000000 13.245938 -2.864110 -1.885193 65.323513 0.587119 -5.601935 9.745219 19.074300 2.217697 0.000000 0.000000 0.000000 
-0.000584 0.954036 0.001500 -0.374504 -4.782694 5.820299 2.981052 -0.348434 -4.545052 0.603668 0.152930 -5.564708 -5.040201 -3.548787 14.140393 0.000000 0.000000 0.000000 -0.380880 0.578300 -5.868602 -3.657151 0.107302 -3.424303 -3.021420 -11.689978 13.654112 0.000000 0.000000 0.000000 4.924847 0.116614 -2.779419 -3.556764 1.538301 -5.976071 -4.713255 6.678232 4.025412 5.083392 -3.191064 -4.873217 0.000000 0.000000 0.000000 -13.525909 -6.503058 0.894823 -56.009414 -7.344785 -3.202178 -13.296127 -14.769991 2.116083 0.000000 0.000000 0.000000 14.141406 -2.286565 -1.557047 65.128407 -0.507254 -6.314740 8.396668 20.991904 2.280851 0.000000 0.000000 0.000000 
-0.000851 0.954547 0.002028 -0.129184 -4.609770 6.366154 3.087820 -0.387645 -5.139702 -0.003085 0.195323 -5.606256 -5.194234 -3.616243 14.515502 0.000000 0.000000 0.000000 -0.445829 0.642507 -6.517093 -3.844825 0.126777 -3.330884 -3.343536 -12.290739 13.901710 0.000000 0.000000 0.000000 4.661116 0.169966 -3.499017 -4.104472 1.779216 -5.420707 -4.554453 6.525139 2.972333 4.478580 -3.028365 -3.096523 0.000000 0.000000 0.000000 -12.657027 -6.550024 0.976528 -56.289577 -7.476011 -3.072140 -14.188315 -15.211958 2.286717 0.000000 0.000000 0.000000 12.853482 -2.545701 -1.640022 65.641010 -1.553172 -6.767587 10.645878 22.390185 2.861944 0.000000 0.000000 0.000000 
-0.001122 0.955117 0.002595 0.067795 -4.261996 6.004763 2.767967 -0.399212 -5.185049 0.229610 0.151471 -4.884171 -5.365911 -3.853137 14.480414 0.000000 0.000000 0.000000 -0.479209 0.580403 -5.891957 -4.065528 0.127322 -3.569957 -3.501168 -12.534492 13.998150 0.000000 0.000000 0.000000 4.361285 0.171843 -3.495891 -3.774176 1.649408 -5.364499 -4.732905 6.590626 3.351829 4.134539 -2.839274 -2.626449 0.000000 0.000000 0.000000 -11.981601 -5.861662 0.695822 -55.477955 -6.982098 -3.319846 -17.433533 -16.692219 2.958990 0.000000 0.000000 0.000000 11.952402 -2.876675 -1.695397 65.378895 -2.272023 -7.120015 12.469285 24.668604 3.610288 0.000000 0.000000 0.000000 
-0.001298 0.955809 0.003150 0.313713 -3.925461 6.017745 2.750050 -0.411367 -5.334247 -0.167164 0.174108 -4.711613 -5.606987 -4.063568 14.770041 0.000000 0.000000 0.000000 -0.648124 0.583404 -5.934191 -4.279856 0.126004 -3.806284 -3.682439 -12.995984 15.001977 0.000000 0.000000 0.000000 4.243079 0.161486 -3.403383 -3.876845 1.678280 -6.186628 -4.808213 6.834200 3.705592 3.664978 -2.655762 -1.509223 0.000000 0.000000 0.000000 -11.111795 -5.060058 0.382101 -54.977310 -5.850322 -3.875928 -21.091111 -19.122861 3.972336 0.000000 0.000000 0.000000 10.476079 -3.411697 -1.799736 65.461325 -3.622328 -7.806170 16.200632 27.916889 5.122849 0.000000 0.000000 0.000000 
-0.001353 0.956122 0.003563 0.378675 -3.689328 5.794259 2.488160 -0.442026 -5.678407 0.190111 0.109736 -3.694454 -5.660343 -4.207377 14.556822 0.000000 0.000000 0.000000 -0.765254 0.576709 -5.876300 -4.359651 0.175608 -3.244942 -3.527564 -12.648737 14.749509 0.000000 0.000000 0.000000 4.393460 0.143030 -3.152298 -4.026829 1.736262 -6.531518 -5.059913 6.731438 3.991619 3.441225 -2.589124 -0.859778 0.000000 0.000000 0.000000 -10.410923 -3.963351 -0.009027 -53.951635 -5.079830 -4.187816 -26.380316 -22.002561 5.582350 0.000000 0.000000 0.000000 9.486693 -3.888285 -1.947344 64.672325 -5.076937 -8.486087 22.261487 32.488369 7.933703 0.000000 0.000000 0.000000 
-0.001366 0.956840 0.003855 0.285064 -3.639786 5.756454 2.391570 -0.481187 -6.211261 0.553886 0.044322 -2.799000 -5.686421 -4.137206 14.786232 0.000000 0.000000 0.000000 -0.771843 0.580204 -5.913125 -4.283799 0.198919 -2.871383 -3.303318 -12.217599 14.561271 0.000000 0.000000 0.000000 4.571134 0.136382 -3.068512 -4.243577 1.810125 -7.116884 -5.018477 7.313026 4.470492 3.409081 -2.593335 -0.642799 0.000000 0.000000 0.000000 -8.931100 -2.923166 -0.308250 -53.609512 -4.840860 -4.382410 -33.689525 -24.882143 7.885703 0.000000 0.000000 0.000000 8.729920 -5.217013 -2.433791 63.534936 -6.393034 -8.983085 29.715663 36.525049 11.816767 0.000000 0.000000 0.000000 
-0.001487 0.957421 0.004018 0.245433 -3.869226 5.664389 2.263494 -0.498366 -6.413291 0.811777 0.017786 -2.726425 -5.657073 -3.575090 16.031275 0.000000 0.000000 0.000000 -0.956270 0.579082 -5.917538 -4.076817 0.155412 -3.236660 -3.048757 -12.048869 15.712187 0.000000 0.000000 0.000000 4.696211 0.130787 -2.978033 -4.181903 1.768306 -7.688695 -5.078037 7.574482 5.173634 3.508864 -2.571752 -1.213421 0.000000 0.000000 0.000000 -8.257050 -1.931197 -0.612556 -53.416441 -5.125518 -4.345899 -40.830610 -27.809064 10.686190 0.000000 0.000000 0.000000 8.308872 -5.910512 -2.695946 62.025109 -7.023637 -9.136803 38.060944 39.793631 16.485506 0.000000 0.000000 0.000000 
-0.001807 0.958168 0.004403 0.183089 -4.116973 5.709699 2.130447 -0.520965 -6.679377 0.893913 0.003148 -2.567271 -5.108167 -2.427142 16.819830 0.000000 0.000000 0.000000 -0.902837 0.589324 -6.020440 -3.938322 0.158749 -3.033644 -2.991288 -11.957533 15.557670 0.000000 0.000000 0.000000 4.904597 0.144637 -3.121423 -4.436798 1.856765 -7.931983 -4.903481 7.946274 5.894556 4.173150 -3.024690 -1.668363 0.000000 0.000000 0.000000 -7.774180 -1.482852 -0.724231 -52.912988 -5.125668 -4.387509 -49.299589 -31.182198 14.627922 0.000000 0.000000 0.000000 8.266244 -6.810005 -3.068283 60.678336 -7.661561 -9.315858 45.488047 41.897965 20.941695 0.000000 0.000000 0.000000 
